<svg xmlns="http://www.w3.org/2000/svg" xmlns:xlink="http://www.w3.org/1999/xlink" width="18" height="18" viewBox="0 0 18 18">
  <defs>
    <clipPath id="clip-path">
      <rect id="Rectángulo_10843" data-name="Rectángulo 10843" width="18" height="18" transform="translate(0 282)" fill="#707070" stroke="#707070" stroke-width="1"/>
    </clipPath>
  </defs>
  <g id="Enmascarar_grupo_57903" data-name="Enmascarar grupo 57903" transform="translate(0 -282)" clipPath="url(#clip-path)">
    <path id="medical-bag" d="M8.988,2.7l-1.8,1.8v1.8h-2.7a1.912,1.912,0,0,0-1.8,1.8l-.9,8.988a1.612,1.612,0,0,0,1.8,1.8h14.38a1.612,1.612,0,0,0,1.8-1.8l-.9-8.988a1.978,1.978,0,0,0-1.8-1.8h-2.7v-1.8l-1.8-1.8h-3.6m0,1.8h3.6v1.8h-3.6v-1.8m.9,4.494h1.8v2.7h2.7v1.8h-2.7v2.7h-1.8v-2.7H7.19v-1.8h2.7Z" transform="translate(-1.785 280.215)" fill="#707070"/>
  </g>
</svg>
