<svg xmlns="http://www.w3.org/2000/svg" xmlns:xlink="http://www.w3.org/1999/xlink" width="50" height="50" viewBox="0 0 50 50">
  <defs>
    <clipPath id="clip-path">
      <rect id="Rect치ngulo_11139" data-name="Rect치ngulo 11139" width="24" height="24" transform="translate(-19193 2265)" fill="#fff" stroke="#707070" stroke-width="1"/>
    </clipPath>
  </defs>
  <g id="Grupo_60467" data-name="Grupo 60467" transform="translate(-574 -212)">
    <rect id="Rect치ngulo_11017" data-name="Rect치ngulo 11017" width="50" height="50" rx="8" transform="translate(574 212)" fill="#336cfb"/>
    <g id="Enmascarar_grupo_57988" data-name="Enmascarar grupo 57988" transform="translate(19780 -2040)" clipPath="url(#clip-path)">
      <path id="dog" d="M19.364,3.273a8.529,8.529,0,0,0-3.655.665,6.612,6.612,0,0,0-5.782,0,8.529,8.529,0,0,0-3.655-.665C3,3.273.818,12,.818,14.182c0,.905,1.44,1.735,3.425,2.073.7,2.444,3.993,4.309,8.029,4.473V16.058c-.644-.4-1.636-1.135-1.636-1.876,0-1.091,2.182-1.091,2.182-1.091S15,13.091,15,14.182c0,.742-.993,1.473-1.636,1.876v4.669c4.036-.164,7.331-2.029,8.029-4.473,1.985-.338,3.425-1.167,3.425-2.073,0-2.182-2.182-10.909-5.455-10.909M4.255,14.04A8.136,8.136,0,0,1,3,13.636c.273-3.022,2.4-7.745,3.327-8.182a9.9,9.9,0,0,1,1.44.12c-2.291,2.52-3.2,6.469-3.513,8.465M9.545,12a1.091,1.091,0,1,1,1.091-1.091A1.091,1.091,0,0,1,9.545,12m6.545,0a1.091,1.091,0,1,1,1.091-1.091A1.091,1.091,0,0,1,16.091,12m5.291,2.04c-.316-2-1.222-5.945-3.513-8.465a9.9,9.9,0,0,1,1.44-.12c.927.436,3.055,5.16,3.327,8.182A7.4,7.4,0,0,1,21.382,14.04Z" transform="translate(-19193.818 2265)" fill="#fff"/>
    </g>
  </g>
</svg>
