<svg xmlns="http://www.w3.org/2000/svg" xmlns:xlink="http://www.w3.org/1999/xlink" width="32" height="32" viewBox="0 0 32 32">
  <defs>
    <clipPath id="clip-path">
      <rect id="Rectángulo_10850" data-name="Rectángulo 10850" width="32" height="32" transform="translate(420 211)" fill="#8a98a5" stroke="#707070" stroke-width="1"/>
    </clipPath>
  </defs>
  <g id="Enmascarar_grupo_57907" data-name="Enmascarar grupo 57907" transform="translate(-420 -211)" clip-path="url(#clip-path)">
    <g id="pet" transform="translate(420 212.813)">
      <path id="Trazado_64965" data-name="Trazado 64965" d="M21.219,0H10.781A10.793,10.793,0,0,0,0,10.781v2.485A6.3,6.3,0,0,0,5.481,19.5a10.671,10.671,0,0,0,21.037,0A6.3,6.3,0,0,0,32,13.266V10.781A10.793,10.793,0,0,0,21.219,0Zm8.869,13.266a4.38,4.38,0,0,1-3.418,4.267V8.491a.956.956,0,1,0-1.912,0V17.7a8.758,8.758,0,1,1-17.516,0V8.491a.956.956,0,1,0-1.912,0v9.042a4.38,4.38,0,0,1-3.417-4.266V10.781a8.879,8.879,0,0,1,8.869-8.869H21.219a8.879,8.879,0,0,1,8.869,8.869Zm0,0" fill="#8a98a5"/>
      <path id="Trazado_64966" data-name="Trazado 64966" d="M17.618,17.639H14.381a1.958,1.958,0,0,0-1.7,1,1.916,1.916,0,0,0,.032,1.958,3.852,3.852,0,0,0,6.581,0,1.916,1.916,0,0,0,.032-1.958,1.958,1.958,0,0,0-1.7-1Zm.039,1.962a1.939,1.939,0,0,1-3.315,0,.039.039,0,0,1,0-.009.054.054,0,0,1,.015-.03.033.033,0,0,1,.029-.011h3.237a.033.033,0,0,1,.029.011.054.054,0,0,1,.015.03.043.043,0,0,1,0,.01Zm0,0" fill="#8a98a5"/>
      <path id="Trazado_64967" data-name="Trazado 64967" d="M12.67,11.489a.956.956,0,0,0-1.912,0v1.68a.956.956,0,0,0,1.912,0Zm0,0" fill="#8a98a5"/>
      <path id="Trazado_64968" data-name="Trazado 64968" d="M20.285,10.533a.956.956,0,0,0-.956.956v1.68a.956.956,0,0,0,1.912,0v-1.68A.956.956,0,0,0,20.285,10.533Zm0,0" fill="#8a98a5"/>
    </g>
  </g>
</svg>
