<svg xmlns="http://www.w3.org/2000/svg" width="18" height="18"><defs><clipPath id="prefix__a"><path data-name="Rectángulo 10763" transform="translate(0 14)" fill="#707070" stroke="#707070" d="M0 0h18v18H0z"/></clipPath></defs><g data-name="Enmascarar grupo 57892" transform="translate(0 -14)" clipPath="url(#prefix__a)"><path data-name="account-multiple (3)" d="M12.6 27.95v1.8H0v-1.8s0-3.6 6.3-3.6 6.3 3.6 6.3 3.6M9.45 19.4a3.15 3.15 0 10-3.15 3.15 3.15 3.15 0 003.15-3.15m3.1 4.95a4.788 4.788 0 011.85 3.6v1.8H18v-1.8s0-3.267-5.454-3.6m-.846-8.1a3.051 3.051 0 00-1.737.531 4.5 4.5 0 010 5.238 3.051 3.051 0 001.737.531 3.15 3.15 0 000-6.3z" fill="#707070"/></g></svg>