<svg xmlns="http://www.w3.org/2000/svg" xmlns:xlink="http://www.w3.org/1999/xlink" width="18" height="18" viewBox="0 0 18 18">
  <defs>
    <clipPath id="clip-path">
      <rect id="Rectángulo_11079" data-name="Rectángulo 11079" width="18" height="18" transform="translate(-19193 2265)" fill="#707070" stroke="#707070" stroke-width="1"/>
    </clipPath>
  </defs>
  <g id="Enmascarar_grupo_57958" data-name="Enmascarar grupo 57958" transform="translate(19193 -2265)" clipPath="url(#clip-path)">
    <path id="dog" d="M14.727,3.273a6.4,6.4,0,0,0-2.741.5,4.959,4.959,0,0,0-4.336,0,6.4,6.4,0,0,0-2.741-.5C2.455,3.273.818,9.818.818,11.455c0,.679,1.08,1.3,2.569,1.555.524,1.833,2.995,3.232,6.022,3.355v-3.5c-.483-.3-1.227-.851-1.227-1.407,0-.818,1.636-.818,1.636-.818s1.636,0,1.636.818c0,.556-.745,1.1-1.227,1.407v3.5c3.027-.123,5.5-1.522,6.022-3.355,1.489-.254,2.569-.875,2.569-1.555,0-1.636-1.636-8.182-4.091-8.182M3.4,11.348a6.1,6.1,0,0,1-.941-.3c.2-2.266,1.8-5.809,2.5-6.136A7.427,7.427,0,0,1,6.03,5,13.038,13.038,0,0,0,3.4,11.348m3.968-1.53A.818.818,0,1,1,8.182,9a.818.818,0,0,1-.818.818m4.909,0A.818.818,0,1,1,13.091,9a.818.818,0,0,1-.818.818m3.968,1.53A13.038,13.038,0,0,0,13.606,5a7.427,7.427,0,0,1,1.08-.09c.7.327,2.291,3.87,2.5,6.136A5.551,5.551,0,0,1,16.241,11.348Z" transform="translate(-19193.818 2264.182)" fill="#707070"/>
  </g>
</svg>
