<svg xmlns="http://www.w3.org/2000/svg" xmlns:xlink="http://www.w3.org/1999/xlink" width="18" height="18" viewBox="0 0 18 18">
  <defs>
    <clipPath id="clip-path">
      <rect id="Rectángulo_10763" data-name="Rectángulo 10763" width="18" height="18" transform="translate(0 14)" fill="#707070" stroke="#707070" stroke-width="1"/>
    </clipPath>
  </defs>
  <g id="Enmascarar_grupo_57892" data-name="Enmascarar grupo 57892" transform="translate(0 -14)" clipPath="url(#clip-path)">
    <path id="account-multiple_3_" data-name="account-multiple (3)" d="M14.4,15.3v1.8H1.8V15.3s0-3.6,6.3-3.6,6.3,3.6,6.3,3.6M11.25,6.75A3.15,3.15,0,1,0,8.1,9.9a3.15,3.15,0,0,0,3.15-3.15m3.1,4.95A4.788,4.788,0,0,1,16.2,15.3v1.8h3.6V15.3s0-3.267-5.454-3.6M13.5,3.6a3.051,3.051,0,0,0-1.737.531,4.5,4.5,0,0,1,0,5.238A3.051,3.051,0,0,0,13.5,9.9a3.15,3.15,0,0,0,0-6.3Z" transform="translate(-1.8 12.65)" fill="#707070"/>
  </g>
</svg>
